<mxfile host="65bd71144e">
    <diagram id="2DuvfqOakOoD_B5enKlG" name="Page-1">
        <mxGraphModel dx="1520" dy="643" grid="1" gridSize="10" guides="1" tooltips="1" connect="1" arrows="1" fold="1" page="1" pageScale="1" pageWidth="850" pageHeight="1100" math="0" shadow="0">
            <root>
                <mxCell id="0"/>
                <mxCell id="1" parent="0"/>
                <mxCell id="2" value="Pool" style="swimlane;childLayout=stackLayout;resizeParent=1;resizeParentMax=0;startSize=20;html=1;" parent="1" vertex="1">
                    <mxGeometry x="40" y="30" width="760" height="1600" as="geometry"/>
                </mxCell>
                <mxCell id="3" value="inventory" style="swimlane;startSize=20;html=1;" parent="2" vertex="1">
                    <mxGeometry y="20" width="220" height="1580" as="geometry"/>
                </mxCell>
                <mxCell id="92" style="edgeStyle=none;html=1;exitX=0.5;exitY=1;exitDx=0;exitDy=0;entryX=0.5;entryY=0;entryDx=0;entryDy=0;fontSize=13;" parent="3" source="69" target="68" edge="1">
                    <mxGeometry relative="1" as="geometry"/>
                </mxCell>
                <mxCell id="69" value="&lt;h3&gt;update inventory&lt;/h3&gt;" style="rounded=1;whiteSpace=wrap;html=1;" parent="3" vertex="1">
                    <mxGeometry x="20" y="860" width="115" height="50" as="geometry"/>
                </mxCell>
                <mxCell id="96" style="edgeStyle=none;html=1;exitX=0.5;exitY=1;exitDx=0;exitDy=0;fontSize=13;" parent="3" source="68" target="94" edge="1">
                    <mxGeometry relative="1" as="geometry"/>
                </mxCell>
                <mxCell id="68" value="&lt;h3&gt;deploy delivary&lt;/h3&gt;" style="rounded=1;whiteSpace=wrap;html=1;" parent="3" vertex="1">
                    <mxGeometry x="20" y="955" width="115" height="50" as="geometry"/>
                </mxCell>
                <mxCell id="93" value="" style="edgeStyle=none;html=1;fontSize=13;" parent="3" source="94" edge="1">
                    <mxGeometry relative="1" as="geometry">
                        <mxPoint x="160" y="1170" as="targetPoint"/>
                        <Array as="points">
                            <mxPoint x="160" y="1130"/>
                            <mxPoint x="160" y="1140"/>
                        </Array>
                    </mxGeometry>
                </mxCell>
                <mxCell id="94" value="" style="line;strokeWidth=4;direction=south;html=1;perimeter=backbonePerimeter;points=[];outlineConnect=0;fontSize=13;rotation=90;" parent="3" vertex="1">
                    <mxGeometry x="100" y="1030" width="10" height="160" as="geometry"/>
                </mxCell>
                <mxCell id="95" value="" style="endArrow=classic;html=1;fontSize=13;entryX=0.5;entryY=0;entryDx=0;entryDy=0;" parent="3" source="94" target="103" edge="1">
                    <mxGeometry width="50" height="50" relative="1" as="geometry">
                        <mxPoint x="473.21000000000004" y="1171" as="sourcePoint"/>
                        <mxPoint x="40" y="1170" as="targetPoint"/>
                    </mxGeometry>
                </mxCell>
                <mxCell id="106" style="edgeStyle=none;html=1;exitX=0.5;exitY=1;exitDx=0;exitDy=0;entryX=0.5;entryY=0;entryDx=0;entryDy=0;fontSize=13;" parent="3" source="103" target="105" edge="1">
                    <mxGeometry relative="1" as="geometry"/>
                </mxCell>
                <mxCell id="103" value="&lt;h3&gt;send msg&lt;/h3&gt;" style="rounded=1;whiteSpace=wrap;html=1;" parent="3" vertex="1">
                    <mxGeometry x="10" y="1170" width="90" height="40" as="geometry"/>
                </mxCell>
                <mxCell id="104" value="&lt;h3&gt;confirm delivary&lt;/h3&gt;" style="rounded=1;whiteSpace=wrap;html=1;" parent="3" vertex="1">
                    <mxGeometry x="120" y="1170" width="90" height="40" as="geometry"/>
                </mxCell>
                <mxCell id="105" value="" style="shape=sumEllipse;perimeter=ellipsePerimeter;whiteSpace=wrap;html=1;backgroundOutline=1;fontSize=13;" parent="3" vertex="1">
                    <mxGeometry x="40" y="1270" width="30" height="30" as="geometry"/>
                </mxCell>
                <mxCell id="4" value="customer" style="swimlane;startSize=20;html=1;" parent="2" vertex="1">
                    <mxGeometry x="220" y="20" width="310" height="1580" as="geometry"/>
                </mxCell>
                <mxCell id="15" value="" style="edgeStyle=none;html=1;fontSize=13;" parent="4" source="8" target="14" edge="1">
                    <mxGeometry relative="1" as="geometry"/>
                </mxCell>
                <mxCell id="8" value="&lt;h3&gt;Place Order&lt;/h3&gt;" style="rounded=1;whiteSpace=wrap;html=1;" parent="4" vertex="1">
                    <mxGeometry x="91.25" y="100" width="115" height="50" as="geometry"/>
                </mxCell>
                <mxCell id="23" style="edgeStyle=none;html=1;exitX=0.5;exitY=1;exitDx=0;exitDy=0;entryX=0.5;entryY=0;entryDx=0;entryDy=0;fontSize=13;" parent="4" source="14" target="20" edge="1">
                    <mxGeometry relative="1" as="geometry"/>
                </mxCell>
                <mxCell id="14" value="&lt;h3&gt;choose payment method&lt;/h3&gt;" style="rounded=1;whiteSpace=wrap;html=1;" parent="4" vertex="1">
                    <mxGeometry x="87.5" y="190" width="122.5" height="50" as="geometry"/>
                </mxCell>
                <mxCell id="18" value="&lt;h3&gt;collect delivary details&lt;/h3&gt;" style="rounded=1;whiteSpace=wrap;html=1;" parent="4" vertex="1">
                    <mxGeometry x="10" y="370" width="115" height="50" as="geometry"/>
                </mxCell>
                <mxCell id="19" value="&lt;h3&gt;collect card details&lt;/h3&gt;" style="rounded=1;whiteSpace=wrap;html=1;" parent="4" vertex="1">
                    <mxGeometry x="155" y="370" width="115" height="50" as="geometry"/>
                </mxCell>
                <mxCell id="20" value="pay method" style="rhombus;whiteSpace=wrap;html=1;fontSize=13;" parent="4" vertex="1">
                    <mxGeometry x="108.75" y="260" width="80" height="80" as="geometry"/>
                </mxCell>
                <mxCell id="21" value="" style="endArrow=classic;html=1;fontSize=13;exitX=1;exitY=0.5;exitDx=0;exitDy=0;entryX=0.5;entryY=0;entryDx=0;entryDy=0;" parent="4" source="20" target="19" edge="1">
                    <mxGeometry relative="1" as="geometry">
                        <mxPoint x="155" y="430" as="sourcePoint"/>
                        <mxPoint x="240" y="370" as="targetPoint"/>
                        <Array as="points">
                            <mxPoint x="213" y="300"/>
                        </Array>
                    </mxGeometry>
                </mxCell>
                <mxCell id="22" value="credit card" style="edgeLabel;resizable=0;html=1;align=center;verticalAlign=middle;fontSize=13;" parent="21" connectable="0" vertex="1">
                    <mxGeometry relative="1" as="geometry"/>
                </mxCell>
                <mxCell id="24" value="" style="endArrow=classic;html=1;fontSize=13;exitX=0;exitY=0.5;exitDx=0;exitDy=0;entryX=0.5;entryY=0;entryDx=0;entryDy=0;" parent="4" source="20" target="18" edge="1">
                    <mxGeometry relative="1" as="geometry">
                        <mxPoint x="468.75" y="340" as="sourcePoint"/>
                        <mxPoint x="70" y="360" as="targetPoint"/>
                        <Array as="points">
                            <mxPoint x="68" y="300"/>
                        </Array>
                    </mxGeometry>
                </mxCell>
                <mxCell id="25" value="cash" style="edgeLabel;resizable=0;html=1;align=center;verticalAlign=middle;fontSize=13;" parent="24" connectable="0" vertex="1">
                    <mxGeometry relative="1" as="geometry"/>
                </mxCell>
                <mxCell id="44" style="edgeStyle=none;html=1;exitX=0.5;exitY=1;exitDx=0;exitDy=0;fontSize=13;" parent="4" source="34" target="43" edge="1">
                    <mxGeometry relative="1" as="geometry"/>
                </mxCell>
                <mxCell id="34" value="&lt;h3&gt;create order&lt;/h3&gt;" style="rounded=1;whiteSpace=wrap;html=1;" parent="4" vertex="1">
                    <mxGeometry x="73.75" y="650" width="115" height="50" as="geometry"/>
                </mxCell>
                <mxCell id="35" value="&lt;h3&gt;bank confirm&lt;/h3&gt;" style="rounded=1;whiteSpace=wrap;html=1;" parent="4" vertex="1">
                    <mxGeometry x="125" y="470" width="115" height="50" as="geometry"/>
                </mxCell>
                <mxCell id="41" style="edgeStyle=none;html=1;exitX=0.5;exitY=1;exitDx=0;exitDy=0;entryX=0.5;entryY=0;entryDx=0;entryDy=0;fontSize=13;" parent="4" source="38" target="34" edge="1">
                    <mxGeometry relative="1" as="geometry"/>
                </mxCell>
                <mxCell id="38" value="" style="rhombus;whiteSpace=wrap;html=1;fontSize=13;" parent="4" vertex="1">
                    <mxGeometry x="107.75" y="570" width="47" height="50" as="geometry"/>
                </mxCell>
                <mxCell id="39" style="edgeStyle=none;html=1;exitX=0.5;exitY=1;exitDx=0;exitDy=0;fontSize=13;entryX=1;entryY=0.5;entryDx=0;entryDy=0;" parent="4" source="35" target="38" edge="1">
                    <mxGeometry relative="1" as="geometry">
                        <mxPoint x="250" y="620" as="targetPoint"/>
                        <Array as="points">
                            <mxPoint x="183" y="595"/>
                        </Array>
                    </mxGeometry>
                </mxCell>
                <mxCell id="40" style="edgeStyle=none;html=1;exitX=0.5;exitY=1;exitDx=0;exitDy=0;fontSize=13;entryX=0;entryY=0.5;entryDx=0;entryDy=0;" parent="4" source="18" target="38" edge="1">
                    <mxGeometry relative="1" as="geometry">
                        <mxPoint x="68" y="650" as="targetPoint"/>
                        <Array as="points">
                            <mxPoint x="68" y="595"/>
                        </Array>
                    </mxGeometry>
                </mxCell>
                <mxCell id="75" value="" style="edgeStyle=none;html=1;fontSize=13;" parent="4" source="43" target="74" edge="1">
                    <mxGeometry relative="1" as="geometry"/>
                </mxCell>
                <mxCell id="43" value="" style="line;strokeWidth=4;direction=south;html=1;perimeter=backbonePerimeter;points=[];outlineConnect=0;fontSize=13;rotation=90;" parent="4" vertex="1">
                    <mxGeometry x="98.75" y="670" width="10" height="160" as="geometry"/>
                </mxCell>
                <mxCell id="71" value="&lt;h3&gt;send product&lt;/h3&gt;" style="rounded=1;whiteSpace=wrap;html=1;" parent="4" vertex="1">
                    <mxGeometry x="10" y="800" width="115" height="50" as="geometry"/>
                </mxCell>
                <mxCell id="72" value="&lt;h3&gt;confirm with bank&lt;/h3&gt;" style="rounded=1;whiteSpace=wrap;html=1;" parent="4" vertex="1">
                    <mxGeometry x="154.75" y="800" width="115" height="50" as="geometry"/>
                </mxCell>
                <mxCell id="73" value="" style="endArrow=classic;html=1;fontSize=13;entryX=0.5;entryY=0;entryDx=0;entryDy=0;exitX=0.269;exitY=0.4;exitDx=0;exitDy=0;exitPerimeter=0;" parent="4" source="74" target="72" edge="1">
                    <mxGeometry width="50" height="50" relative="1" as="geometry">
                        <mxPoint x="170" y="790" as="sourcePoint"/>
                        <mxPoint x="220" y="740" as="targetPoint"/>
                    </mxGeometry>
                </mxCell>
                <mxCell id="74" value="" style="line;strokeWidth=4;direction=south;html=1;perimeter=backbonePerimeter;points=[];outlineConnect=0;fontSize=13;rotation=90;" parent="4" vertex="1">
                    <mxGeometry x="170" y="670" width="10" height="160" as="geometry"/>
                </mxCell>
                <mxCell id="77" value="" style="endArrow=classic;html=1;fontSize=13;entryX=0.5;entryY=0;entryDx=0;entryDy=0;" parent="4" source="43" target="71" edge="1">
                    <mxGeometry width="50" height="50" relative="1" as="geometry">
                        <mxPoint x="491.96000000000004" y="811" as="sourcePoint"/>
                        <mxPoint x="492.25" y="860" as="targetPoint"/>
                    </mxGeometry>
                </mxCell>
                <mxCell id="119" style="edgeStyle=none;html=1;exitX=0.5;exitY=1;exitDx=0;exitDy=0;entryX=0.5;entryY=0;entryDx=0;entryDy=0;fontSize=13;" parent="4" source="97" target="116" edge="1">
                    <mxGeometry relative="1" as="geometry"/>
                </mxCell>
                <mxCell id="97" value="&lt;h3&gt;confirm order succes&lt;/h3&gt;" style="rounded=1;whiteSpace=wrap;html=1;" parent="4" vertex="1">
                    <mxGeometry x="97.5" y="1380" width="115" height="50" as="geometry"/>
                </mxCell>
                <mxCell id="114" style="edgeStyle=none;html=1;exitX=0.5;exitY=1;exitDx=0;exitDy=0;fontSize=13;" parent="4" source="98" target="111" edge="1">
                    <mxGeometry relative="1" as="geometry"/>
                </mxCell>
                <mxCell id="98" value="&lt;h3&gt;receive inventory confirm&lt;/h3&gt;" style="rounded=1;whiteSpace=wrap;html=1;" parent="4" vertex="1">
                    <mxGeometry x="30" y="1165" width="115" height="50" as="geometry"/>
                </mxCell>
                <mxCell id="113" style="edgeStyle=none;html=1;exitX=0.5;exitY=1;exitDx=0;exitDy=0;fontSize=13;" parent="4" source="99" target="112" edge="1">
                    <mxGeometry relative="1" as="geometry"/>
                </mxCell>
                <mxCell id="99" value="&lt;h3&gt;receive bank confirm&lt;/h3&gt;" style="rounded=1;whiteSpace=wrap;html=1;" parent="4" vertex="1">
                    <mxGeometry x="165" y="1165" width="115" height="50" as="geometry"/>
                </mxCell>
                <mxCell id="111" value="" style="line;strokeWidth=4;direction=south;html=1;perimeter=backbonePerimeter;points=[];outlineConnect=0;fontSize=13;rotation=90;" parent="4" vertex="1">
                    <mxGeometry x="115" y="1230" width="10" height="160" as="geometry"/>
                </mxCell>
                <mxCell id="112" value="" style="line;strokeWidth=4;direction=south;html=1;perimeter=backbonePerimeter;points=[];outlineConnect=0;fontSize=13;rotation=90;" parent="4" vertex="1">
                    <mxGeometry x="188.75" y="1230" width="10" height="160" as="geometry"/>
                </mxCell>
                <mxCell id="115" style="edgeStyle=none;html=1;entryX=0.5;entryY=0;entryDx=0;entryDy=0;fontSize=13;" parent="4" source="112" target="97" edge="1">
                    <mxGeometry relative="1" as="geometry">
                        <mxPoint x="-115" y="1270" as="sourcePoint"/>
                        <mxPoint x="-115" y="1330" as="targetPoint"/>
                    </mxGeometry>
                </mxCell>
                <mxCell id="118" style="edgeStyle=none;html=1;exitX=0.5;exitY=1;exitDx=0;exitDy=0;entryX=0.5;entryY=0;entryDx=0;entryDy=0;fontSize=13;" parent="4" source="117" target="8" edge="1">
                    <mxGeometry relative="1" as="geometry"/>
                </mxCell>
                <mxCell id="117" value="" style="ellipse;whiteSpace=wrap;html=1;aspect=fixed;strokeWidth=3;fontSize=13;fillColor=none;" parent="4" vertex="1">
                    <mxGeometry x="138.75" y="50" width="20" height="20" as="geometry"/>
                </mxCell>
                <mxCell id="116" value="" style="ellipse;shape=doubleEllipse;whiteSpace=wrap;html=1;aspect=fixed;strokeWidth=2;fontSize=13;fillColor=#121212;strokeColor=#fffafa;" parent="4" vertex="1">
                    <mxGeometry x="140" y="1480" width="30" height="30" as="geometry"/>
                </mxCell>
                <mxCell id="5" value="bank" style="swimlane;startSize=20;html=1;strokeWidth=1;fillColor=none;" parent="2" vertex="1">
                    <mxGeometry x="530" y="20" width="230" height="1580" as="geometry"/>
                </mxCell>
                <mxCell id="32" style="edgeStyle=none;html=1;exitX=0.5;exitY=1;exitDx=0;exitDy=0;entryX=0.5;entryY=0;entryDx=0;entryDy=0;fontSize=13;" parent="5" source="17" target="27" edge="1">
                    <mxGeometry relative="1" as="geometry"/>
                </mxCell>
                <mxCell id="17" value="&lt;h3&gt;valid card&lt;/h3&gt;" style="rounded=1;whiteSpace=wrap;html=1;" parent="5" vertex="1">
                    <mxGeometry x="32.5" y="420" width="115" height="50" as="geometry"/>
                </mxCell>
                <mxCell id="27" value="&lt;h5&gt;&lt;b&gt;Check Card validation&lt;/b&gt;&lt;/h5&gt;" style="rhombus;whiteSpace=wrap;html=1;fontSize=13;" parent="5" vertex="1">
                    <mxGeometry x="48.75" y="490" width="80" height="80" as="geometry"/>
                </mxCell>
                <mxCell id="30" value="" style="endArrow=classic;html=1;fontSize=13;exitX=0;exitY=0.5;exitDx=0;exitDy=0;" parent="5" source="27" edge="1">
                    <mxGeometry relative="1" as="geometry">
                        <mxPoint x="408.75" y="570" as="sourcePoint"/>
                        <mxPoint x="70" y="600" as="targetPoint"/>
                        <Array as="points">
                            <mxPoint x="20" y="530"/>
                        </Array>
                    </mxGeometry>
                </mxCell>
                <mxCell id="31" value="&lt;b&gt;Valid&lt;/b&gt;" style="edgeLabel;resizable=0;html=1;align=center;verticalAlign=middle;fontSize=13;" parent="30" connectable="0" vertex="1">
                    <mxGeometry relative="1" as="geometry"/>
                </mxCell>
                <mxCell id="36" value="&lt;h3&gt;send confirm&lt;/h3&gt;" style="rounded=1;whiteSpace=wrap;html=1;" parent="5" vertex="1">
                    <mxGeometry x="40" y="600" width="115" height="50" as="geometry"/>
                </mxCell>
                <mxCell id="85" style="edgeStyle=none;html=1;exitX=0.5;exitY=1;exitDx=0;exitDy=0;entryX=0.5;entryY=0;entryDx=0;entryDy=0;fontSize=13;" parent="5" source="70" target="80" edge="1">
                    <mxGeometry relative="1" as="geometry"/>
                </mxCell>
                <mxCell id="70" value="&lt;h3&gt;update balance&lt;/h3&gt;" style="rounded=1;whiteSpace=wrap;html=1;" parent="5" vertex="1">
                    <mxGeometry x="48.75" y="860" width="115" height="50" as="geometry"/>
                </mxCell>
                <mxCell id="80" value="check balance" style="rhombus;whiteSpace=wrap;html=1;fontSize=13;" parent="5" vertex="1">
                    <mxGeometry x="67.5" y="940" width="80" height="80" as="geometry"/>
                </mxCell>
                <mxCell id="83" value="" style="endArrow=classic;html=1;fontSize=13;exitX=0;exitY=0.5;exitDx=0;exitDy=0;" parent="5" source="80" edge="1">
                    <mxGeometry relative="1" as="geometry">
                        <mxPoint x="420.75" y="1020" as="sourcePoint"/>
                        <mxPoint x="108" y="1110" as="targetPoint"/>
                        <Array as="points">
                            <mxPoint x="20" y="980"/>
                        </Array>
                    </mxGeometry>
                </mxCell>
                <mxCell id="84" value="cash" style="edgeLabel;resizable=0;html=1;align=center;verticalAlign=middle;fontSize=13;" parent="83" connectable="0" vertex="1">
                    <mxGeometry relative="1" as="geometry"/>
                </mxCell>
                <mxCell id="87" value="" style="edgeStyle=none;html=1;fontSize=13;" parent="5" source="88" edge="1">
                    <mxGeometry relative="1" as="geometry">
                        <mxPoint x="170" y="1170" as="targetPoint"/>
                    </mxGeometry>
                </mxCell>
                <mxCell id="88" value="" style="line;strokeWidth=4;direction=south;html=1;perimeter=backbonePerimeter;points=[];outlineConnect=0;fontSize=13;rotation=90;" parent="5" vertex="1">
                    <mxGeometry x="110" y="1030" width="10" height="160" as="geometry"/>
                </mxCell>
                <mxCell id="90" value="" style="endArrow=classic;html=1;fontSize=13;" parent="5" source="88" edge="1">
                    <mxGeometry width="50" height="50" relative="1" as="geometry">
                        <mxPoint x="493.21000000000004" y="1171" as="sourcePoint"/>
                        <mxPoint x="50" y="1170" as="targetPoint"/>
                    </mxGeometry>
                </mxCell>
                <mxCell id="100" value="&lt;h3&gt;send msg&lt;/h3&gt;" style="rounded=1;whiteSpace=wrap;html=1;" parent="5" vertex="1">
                    <mxGeometry x="120" y="1170" width="100" height="40" as="geometry"/>
                </mxCell>
                <mxCell id="101" value="&lt;h3&gt;confirm pay&lt;/h3&gt;" style="rounded=1;whiteSpace=wrap;html=1;" parent="5" vertex="1">
                    <mxGeometry x="10" y="1170" width="100" height="40" as="geometry"/>
                </mxCell>
                <mxCell id="107" style="edgeStyle=none;html=1;exitX=0.5;exitY=1;exitDx=0;exitDy=0;entryX=0.5;entryY=0;entryDx=0;entryDy=0;fontSize=13;" parent="5" source="100" target="108" edge="1">
                    <mxGeometry relative="1" as="geometry">
                        <mxPoint x="270" y="1260" as="sourcePoint"/>
                    </mxGeometry>
                </mxCell>
                <mxCell id="108" value="" style="shape=sumEllipse;perimeter=ellipsePerimeter;whiteSpace=wrap;html=1;backgroundOutline=1;fontSize=13;" parent="5" vertex="1">
                    <mxGeometry x="155" y="1270" width="30" height="30" as="geometry"/>
                </mxCell>
                <mxCell id="26" style="edgeStyle=none;html=1;entryX=0;entryY=0.5;entryDx=0;entryDy=0;fontSize=13;" parent="2" source="19" target="17" edge="1">
                    <mxGeometry relative="1" as="geometry">
                        <Array as="points">
                            <mxPoint x="433" y="465"/>
                        </Array>
                    </mxGeometry>
                </mxCell>
                <mxCell id="28" value="" style="endArrow=classic;html=1;fontSize=13;exitX=1;exitY=0.5;exitDx=0;exitDy=0;entryX=1;entryY=0.75;entryDx=0;entryDy=0;" parent="2" source="27" target="14" edge="1">
                    <mxGeometry relative="1" as="geometry">
                        <mxPoint x="545" y="680" as="sourcePoint"/>
                        <mxPoint x="520" y="330" as="targetPoint"/>
                        <Array as="points">
                            <mxPoint x="690" y="550"/>
                            <mxPoint x="690" y="350"/>
                            <mxPoint x="690" y="250"/>
                        </Array>
                    </mxGeometry>
                </mxCell>
                <mxCell id="29" value="&lt;b&gt;inValid&lt;/b&gt;" style="edgeLabel;resizable=0;html=1;align=center;verticalAlign=middle;fontSize=13;" parent="28" connectable="0" vertex="1">
                    <mxGeometry relative="1" as="geometry">
                        <mxPoint x="4" y="230" as="offset"/>
                    </mxGeometry>
                </mxCell>
                <mxCell id="37" style="edgeStyle=none;html=1;exitX=0;exitY=0.5;exitDx=0;exitDy=0;entryX=1;entryY=0.5;entryDx=0;entryDy=0;fontSize=13;" parent="2" source="36" target="35" edge="1">
                    <mxGeometry relative="1" as="geometry">
                        <Array as="points">
                            <mxPoint x="500" y="645"/>
                            <mxPoint x="500" y="515"/>
                        </Array>
                    </mxGeometry>
                </mxCell>
                <mxCell id="78" style="edgeStyle=none;html=1;exitX=0.5;exitY=1;exitDx=0;exitDy=0;entryX=1;entryY=0.5;entryDx=0;entryDy=0;fontSize=13;" parent="2" source="71" target="69" edge="1">
                    <mxGeometry relative="1" as="geometry">
                        <Array as="points">
                            <mxPoint x="288" y="905"/>
                        </Array>
                    </mxGeometry>
                </mxCell>
                <mxCell id="79" style="edgeStyle=none;html=1;exitX=0.5;exitY=1;exitDx=0;exitDy=0;entryX=0;entryY=0.5;entryDx=0;entryDy=0;fontSize=13;" parent="2" source="72" target="70" edge="1">
                    <mxGeometry relative="1" as="geometry">
                        <Array as="points">
                            <mxPoint x="432" y="905"/>
                        </Array>
                    </mxGeometry>
                </mxCell>
                <mxCell id="81" value="" style="endArrow=classic;html=1;fontSize=13;exitX=1;exitY=0.5;exitDx=0;exitDy=0;entryX=1;entryY=0.25;entryDx=0;entryDy=0;" parent="2" source="80" target="14" edge="1">
                    <mxGeometry relative="1" as="geometry">
                        <mxPoint x="557" y="1130" as="sourcePoint"/>
                        <mxPoint x="558" y="180" as="targetPoint"/>
                        <Array as="points">
                            <mxPoint x="720" y="1000"/>
                            <mxPoint x="720" y="223"/>
                        </Array>
                    </mxGeometry>
                </mxCell>
                <mxCell id="82" value="unvalid balance" style="edgeLabel;resizable=0;html=1;align=center;verticalAlign=middle;fontSize=13;" parent="81" connectable="0" vertex="1">
                    <mxGeometry relative="1" as="geometry">
                        <mxPoint x="-10" y="468" as="offset"/>
                    </mxGeometry>
                </mxCell>
                <mxCell id="109" style="edgeStyle=none;html=1;exitX=0;exitY=0.5;exitDx=0;exitDy=0;entryX=1;entryY=0.5;entryDx=0;entryDy=0;fontSize=13;" parent="2" source="101" target="99" edge="1">
                    <mxGeometry relative="1" as="geometry"/>
                </mxCell>
                <mxCell id="110" style="edgeStyle=none;html=1;exitX=1;exitY=0.5;exitDx=0;exitDy=0;entryX=0;entryY=0.5;entryDx=0;entryDy=0;fontSize=13;" parent="2" source="104" target="98" edge="1">
                    <mxGeometry relative="1" as="geometry"/>
                </mxCell>
            </root>
        </mxGraphModel>
    </diagram>
</mxfile>